<svg width="180" height="180" viewBox="0 0 180 180" fill="none" xmlns="http://www.w3.org/2000/svg">
<g clip-path="url(#clip0_9047_307023)">
<path d="M87.4254 151.779C118.562 151.779 143.804 126.537 143.804 95.4001C143.804 64.263 118.562 39.0215 87.4254 39.0215C56.2884 39.0215 31.0469 64.263 31.0469 95.4001C31.0469 126.537 56.2884 151.779 87.4254 151.779Z" fill="#F3F2F1"/>
<path d="M94.3741 158.785H94.2456C93.0884 159.042 91.9313 158.399 91.6741 157.242L62.6813 40.7566C62.4241 39.5995 63.067 38.4423 64.2241 38.1852H64.3527C65.5099 37.928 66.667 38.5709 66.9241 39.728L95.917 156.214C96.2384 157.371 95.5313 158.528 94.3741 158.785Z" fill="#B4D6FA"/>
<path d="M121.691 39.793L100.348 45.1287L14.9766 66.343C23.2051 47.2501 39.9837 32.0144 61.7123 26.6144C83.5051 21.1501 105.427 26.743 121.691 39.793Z" fill="#B4EAF0"/>
<path d="M121.691 39.793L100.348 45.1287L76.2409 51.1073L50.0123 57.6644L27.8337 63.193L14.9766 66.4073C23.2051 47.2501 39.9837 32.0144 61.7123 26.6144C83.5051 21.1501 105.427 26.743 121.691 39.793Z" fill="#B4D6FA"/>
<path d="M70.132 52.6498L65.8892 53.7427L62.6749 40.8212C62.3535 39.6641 63.1249 38.507 64.282 38.1855H64.3463C65.5035 37.9284 66.6606 38.6355 66.982 39.7927L70.132 52.6498Z" fill="#62ABF5"/>
<path d="M159.876 159.3C159.233 159.3 158.591 158.978 158.269 158.4L148.369 142.586C146.891 140.207 144.319 138.728 141.491 138.728H76.7549C73.9263 138.728 71.3549 140.143 69.8763 142.586L59.9763 158.4C59.3978 159.3 58.2406 159.557 57.3406 158.978C56.4406 158.4 56.1835 157.243 56.7621 156.343L66.6621 140.528C68.8478 136.993 72.6406 134.936 76.8192 134.936H141.426C145.605 134.936 149.398 137.057 151.583 140.528L161.483 156.343C162.062 157.243 161.741 158.4 160.905 158.978C160.583 159.236 160.198 159.3 159.876 159.3Z" fill="#B3AFAB"/>
<path d="M142.97 159.3C142.327 159.3 141.684 158.978 141.363 158.4L131.463 142.586C129.984 140.207 127.413 138.728 124.584 138.728H59.8487C57.0201 138.728 54.4487 140.143 52.9701 142.586L43.0701 158.4C42.4915 159.3 41.3344 159.557 40.4344 158.978C39.5344 158.4 39.2772 157.243 39.8558 156.343L49.7558 140.528C51.9415 136.993 55.7344 134.936 59.9129 134.936H124.584C128.763 134.936 132.556 137.057 134.742 140.528L144.642 156.343C145.22 157.243 144.899 158.4 144.063 158.978C143.613 159.236 143.292 159.3 142.97 159.3Z" fill="#C8C6C4"/>
<path d="M75.1512 134.936H59.7227C55.3512 134.936 49.6298 131.658 46.9298 127.608L24.4298 93.8579C21.7298 89.8079 23.0798 86.5293 27.4512 86.5293H42.8798C47.2512 86.5293 52.9727 89.8079 55.6727 93.8579L78.1727 127.608C80.9369 131.658 79.5227 134.936 75.1512 134.936Z" fill="#F7B548"/>
<path d="M75.1512 134.936H59.7227C55.3512 134.936 49.6298 131.658 46.9298 127.608L24.4298 93.8579C21.7298 89.8079 23.0798 86.5293 27.4512 86.5293H42.8798C47.2512 86.5293 52.9727 89.8079 55.6727 93.8579L78.1727 127.608C80.9369 131.658 79.5227 134.936 75.1512 134.936Z" fill="url(#paint0_linear_9047_307023)"/>
<path d="M150.944 131.272C150.944 132.3 150.558 133.2 149.851 133.843C149.208 134.486 148.308 134.936 147.28 134.936H59.7225C55.3511 134.936 49.694 131.722 46.9297 127.672C47.1225 127.607 47.3154 127.607 47.5725 127.607H147.28C149.273 127.607 150.944 129.215 150.944 131.272Z" fill="#F7B548"/>
<path d="M50.0132 96.3641H32.7846C32.2703 96.3641 31.8203 95.9141 31.8203 95.3998C31.8203 94.8855 32.2703 94.4355 32.7846 94.4355H50.0132C50.5275 94.4355 50.9775 94.8855 50.9775 95.3998C50.9775 95.9141 50.5275 96.3641 50.0132 96.3641Z" fill="#FFE5B9"/>
<path d="M56.1225 104.979H38.894C38.3797 104.979 37.9297 104.529 37.9297 104.015C37.9297 103.501 38.3797 103.051 38.894 103.051H56.1225C56.6368 103.051 57.0868 103.501 57.0868 104.015C57.0868 104.529 56.6368 104.979 56.1225 104.979Z" fill="#FFE5B9"/>
<path d="M61.5835 113.657H44.3549C43.8406 113.657 43.3906 113.207 43.3906 112.693C43.3906 112.179 43.8406 111.729 44.3549 111.729H61.5835C62.0978 111.729 62.5478 112.179 62.5478 112.693C62.5478 113.207 62.0978 113.657 61.5835 113.657Z" fill="#FFE5B9"/>
<path d="M67.6929 122.272H50.4643C49.95 122.272 49.5 121.822 49.5 121.308C49.5 120.794 49.95 120.344 50.4643 120.344H67.6929C68.2071 120.344 68.6571 120.794 68.6571 121.308C68.6571 121.822 68.2071 122.272 67.6929 122.272Z" fill="#FFE5B9"/>
</g>
<defs>
<linearGradient id="paint0_linear_9047_307023" x1="66.1107" y1="147.009" x2="52.3198" y2="113.226" gradientUnits="userSpaceOnUse">
<stop offset="0.0004" stop-color="#9B643D"/>
<stop offset="1" stop-color="#E0BB95" stop-opacity="0"/>
</linearGradient>
<clipPath id="clip0_9047_307023">
<rect width="180" height="180" fill="white"/>
</clipPath>
</defs>
</svg>
