<svg width="20" height="20" fill="none" xmlns="http://www.w3.org/2000/svg"><path d="M18 7h-2.5A1.5 1.5 0 0 1 14 5.5V2H6v16h12V7z" fill="#fff"/><path d="M18 6v-.293l-3-3V5.5c0 .275.225.5.5.5H18z" fill="#fff"/><path opacity=".67" fill-rule="evenodd" clip-rule="evenodd" d="M18.707 5 15 1.293A1 1 0 0 0 14.293 1H6a1 1 0 0 0-1 1v16a1 1 0 0 0 1 1h12a1 1 0 0 0 1-1V5.707A1 1 0 0 0 18.707 5zM18 5.707V6h-2.5a.501.501 0 0 1-.5-.5V2.707l3 3zM6 2.2v15.6c0 .11.09.2.2.2h11.6a.2.2 0 0 0 .2-.2V7h-2.5A1.5 1.5 0 0 1 14 5.5V2H6.2a.2.2 0 0 0-.2.2z" fill="#605E5C"/><path d="M11 15h5.5a.5.5 0 0 0 0-1H11v1z" fill="#C8C6C4"/><path d="M11.955 8.333 8.455 13h7l-3.5-4.667z" fill="#99CDC7"/><path d="m14.955 10.333-2 2.667h4l-2-2.667zM16 10a1 1 0 1 0 0-2 1 1 0 0 0 0 2z" fill="#99CDC7"/><path d="M2 16h8a1 1 0 0 0 1-1V7a1 1 0 0 0-1-1H2a1 1 0 0 0-1 1v8a1 1 0 0 0 1 1z" fill="#008272"/><path d="M4.645 10.88a1.563 1.563 0 0 1-.478-.519A1.44 1.44 0 0 1 4 9.651c0-.365.103-.672.31-.92.206-.249.48-.432.823-.552A3.415 3.415 0 0 1 6.26 8c.624 0 1.12.071 1.482.213V9.29a2.267 2.267 0 0 0-.67-.283 3.176 3.176 0 0 0-.784-.096c-.325 0-.593.059-.806.175-.214.116-.32.282-.32.497 0 .134.045.252.135.353.09.1.212.19.365.267.257.126.518.243.782.35.358.151.646.296.863.438.217.14.387.316.51.527.123.21.184.476.184.796 0 .392-.097.711-.29.958-.2.252-.47.438-.777.536-.324.11-.693.165-1.106.165a5.72 5.72 0 0 1-1.002-.085 3.363 3.363 0 0 1-.813-.241V12.51c.222.168.496.303.823.401.327.1.63.15.906.15.364 0 .637-.06.822-.179a.57.57 0 0 0 .276-.506.546.546 0 0 0-.155-.387 1.566 1.566 0 0 0-.427-.306 14.17 14.17 0 0 0-.806-.37 4.523 4.523 0 0 1-.806-.433z" fill="#F9F7F7"/></svg>